<?xml version="1.0" encoding="UTF-8" standalone="no"?>
<!-- Created with Inkscape (http://www.inkscape.org/) -->

<svg
   xmlns:dc="http://purl.org/dc/elements/1.1/"
   xmlns:cc="http://creativecommons.org/ns#"
   xmlns:rdf="http://www.w3.org/1999/02/22-rdf-syntax-ns#"
   xmlns:svg="http://www.w3.org/2000/svg"
   xmlns="http://www.w3.org/2000/svg"
   xmlns:sodipodi="http://sodipodi.sourceforge.net/DTD/sodipodi-0.dtd"
   xmlns:inkscape="http://www.inkscape.org/namespaces/inkscape"
   width="210mm"
   height="297mm"
   viewBox="0 0 210 297"
   version="1.1"
   id="svg8"
   inkscape:version="0.92.3 (2405546, 2018-03-11)"
   sodipodi:docname="msicon.svg">
  <defs
     id="defs2" />
  <sodipodi:namedview
     id="base"
     pagecolor="#ffffff"
     bordercolor="#666666"
     borderopacity="1.0"
     inkscape:pageopacity="0.0"
     inkscape:pageshadow="2"
     inkscape:zoom="1.0508017"
     inkscape:cx="400"
     inkscape:cy="519.29677"
     inkscape:document-units="mm"
     inkscape:current-layer="layer1"
     showgrid="false"
     inkscape:window-width="1280"
     inkscape:window-height="949"
     inkscape:window-x="-9"
     inkscape:window-y="-9"
     inkscape:window-maximized="1" />
  <metadata
     id="metadata5">
    <rdf:RDF>
      <cc:Work
         rdf:about="">
        <dc:format>image/svg+xml</dc:format>
        <dc:type
           rdf:resource="http://purl.org/dc/dcmitype/StillImage" />
        <dc:title />
      </cc:Work>
    </rdf:RDF>
  </metadata>
  <g
     inkscape:label="Layer 1"
     inkscape:groupmode="layer"
     id="layer1">
    <path
       style="fill:#d40000;fill-opacity:1;stroke:none;stroke-width:1.04919064;stroke-miterlimit:4;stroke-dasharray:none;stroke-dashoffset:0;stroke-opacity:1"
       d="M 377.95312 328.81836 A 188.97638 188.97638 0 0 0 188.97656 517.79492 A 188.97638 188.97638 0 0 0 189.49609 528.18359 L 189.49609 518.31641 L 283.48242 518.31641 A 94.488188 94.488188 0 0 1 283.46484 517.79492 A 94.488188 94.488188 0 0 1 377.95312 423.30664 A 94.488188 94.488188 0 0 1 472.44141 517.79492 A 94.488188 94.488188 0 0 1 472.41602 518.31641 L 566.91211 518.31641 A 188.97638 188.97638 0 0 0 566.92969 517.79492 A 188.97638 188.97638 0 0 0 377.95312 328.81836 z "
       transform="scale(0.26458333)"
       id="path10" />
    <path
       style="fill:#d40000;fill-opacity:1;fill-rule:evenodd;stroke:none;stroke-width:0.84974802px;stroke-linecap:butt;stroke-linejoin:miter;stroke-opacity:1"
       d="M 188.97656 517.79492 L 188.97656 706.77148 L 283.46484 706.77148 L 283.46484 517.79492 L 188.97656 517.79492 z "
       transform="scale(0.26458333)"
       id="rect837" />
    <rect
       style="fill:#d40000;fill-opacity:1;fill-rule:evenodd;stroke:none;stroke-width:0.22482917px;stroke-linecap:butt;stroke-linejoin:miter;stroke-opacity:1"
       id="rect837-4"
       width="25"
       height="50"
       x="125"
       y="137" />
    <rect
       style="fill:#c8c8c8;fill-opacity:1;fill-rule:evenodd;stroke:none;stroke-width:0.29130727px;stroke-linecap:butt;stroke-linejoin:miter;stroke-opacity:1"
       id="rect854"
       width="25"
       height="20"
       x="50"
       y="187" />
    <rect
       style="fill:#c8c8c8;fill-opacity:1;fill-rule:evenodd;stroke:none;stroke-width:0.29130727px;stroke-linecap:butt;stroke-linejoin:miter;stroke-opacity:1"
       id="rect854-1"
       width="25"
       height="20"
       x="125"
       y="187" />
  </g>
</svg>
